<svg xmlns="http://www.w3.org/2000/svg" style="shape-rendering:geometricPrecision;text-rendering:geometricPrecision;image-rendering:optimizeQuality;fill-rule:evenodd;clip-rule:evenodd" viewBox="285.54 437.93 127.96 153.57">
<path fill="#f9f7f3" d="M330.5 438.5c13.459-2.1 24.959 1.566 34.5 11 1.261 4.631.261 8.631-3 12a272.048 272.048 0 0 0-36.5 31.5c15.251 21.252 33.751 39.085 55.5 53.5 3.463-17.33-1.037-32.163-13.5-44.5a76.643 76.643 0 0 0-7.5-3.5c-2.707.705-4.874 2.205-6.5 4.5a49.226 49.226 0 0 1-14 0 4.457 4.457 0 0 1-2-1.5c5.566-5.194 12.233-7.86 20-8 19.924 1.084 32.09 11.417 36.5 31 2.289 10.015 1.789 19.848-1.5 29.5a499.54 499.54 0 0 1 21 15.5c-9.113 3.546-17.446 2.213-25-4-12.126 17.065-28.793 25.732-50 26-38.593-2.762-56.093-23.429-52.5-62 3.912-15.33 11.079-28.83 21.5-40.5-9.809-24.878-2.143-41.711 23-50.5Zm5 2c4.546-.232 8.879.601 13 2.5 5.226 4.921 5.226 9.921 0 15a232.851 232.851 0 0 0-29.5 21.5c-7.764-18.923-2.264-31.923 16.5-39Zm-19 64a231.736 231.736 0 0 0 21 23.5 589.045 589.045 0 0 0 40 30.5c-7.295 15.726-19.462 25.059-36.5 28-20.604-3.27-32.604-15.27-36-36-1.806-16.775 2.027-32.109 11.5-46Z" style="opacity:.95"/>
</svg>