<svg xmlns="http://www.w3.org/2000/svg" style="shape-rendering:geometricPrecision;text-rendering:geometricPrecision;image-rendering:optimizeQuality;fill-rule:evenodd;clip-rule:evenodd" viewBox="599.83 61.42 450.67 954.81"><path fill="#073D69" d="M825.5 61.5c3.149-.289 6.149.211 9 1.5 9.69 8.738 13.19 19.571 10.5 32.5a99.825 99.825 0 0 1-6 18 943.653 943.653 0 0 1-6 30 2794.185 2794.185 0 0 1-18.5 46.5l1 1.5a2473.336 2473.336 0 0 0 36-16.5c14.458-9.458 18.791-22.458 13-39-.562-11.88 4.104-20.88 14-27 4.928-1.643 8.428-.143 10.5 4.5 2.903 13.249.237 25.249-8 36a349.628 349.628 0 0 0-14.5 17c1.29.908 2.623.741 4-.5 11.25-10.455 24.583-16.288 40-17.5 14.439 1.384 18.106 8.218 11 20.5a72.56 72.56 0 0 1-17 10 42.36 42.36 0 0 0-8.5 1.5 282.034 282.034 0 0 0-34.5-3.5 139.54 139.54 0 0 0-29 12.5l1 1c15.894-6.052 30.061-3.385 42.5 8 4.758 6.009 4.591 11.843-.5 17.5-8.938 2.779-17.271 1.446-25-4a216.061 216.061 0 0 0-19-16c-7.75-2.604-14.25-.771-19.5 5.5a104.921 104.921 0 0 0-11 21c-12.655 33.614-20.322 68.28-23 104l29-37a59.043 59.043 0 0 0 5-9 195.426 195.426 0 0 1-2-37c1.544-7.59 5.044-14.09 10.5-19.5 12.444-5.109 19.444-.942 21 12.5a48.06 48.06 0 0 1-5.5 19 394.142 394.142 0 0 1-20 27 36.16 36.16 0 0 1-4 7c-.667 1-.667 2 0 3a178.562 178.562 0 0 0 23.5-21.5c11.949-8.874 24.782-10.707 38.5-5.5a15.505 15.505 0 0 1 2.5 7c-3.672 17.494-14.506 25.827-32.5 25a132.224 132.224 0 0 0-24.5-.5 36.314 36.314 0 0 0-11 4c-17.984 13.8-28.317 31.966-31 54.5 6.722 35.332 17.555 69.332 32.5 102 6.286-18.238 14.952-35.238 26-51 2.674-7.294 1.674-13.961-3-20a202.003 202.003 0 0 1-21-17c-3.889-6.91-3.055-13.076 2.5-18.5 11.849-2.488 20.015 2.012 24.5 13.5 2.1 6.415 2.6 12.915 1.5 19.5.337 3.523.837 7.023 1.5 10.5 12.671-17.354 17.171-36.688 13.5-58-.102-7.99 1.398-15.656 4.5-23 6.179-8.282 14.346-11.449 24.5-9.5 3.759 3.743 4.926 8.243 3.5 13.5-1.985 8.302-5.319 15.969-10 23-13.494 11.984-21.494 26.984-24 45a7918.949 7918.949 0 0 0-10 22 2365.996 2365.996 0 0 1 36.5-28.5 481.17 481.17 0 0 0 32-14l7.5-7.5c1.504-3.539 1.837-7.205 1-11a5396.98 5396.98 0 0 0-12-22c-2.767-6.559-3.1-13.225-1-20 .685-2.557 2.185-4.391 4.5-5.5 11.168-.645 18.335 4.521 21.5 15.5 2.419 12.238.085 23.571-7 34-.991 1.947-1.325 3.947-1 6 6.333-3.667 11.333-8.667 15-15a563.475 563.475 0 0 1 21-42c5.378-6.46 12.212-8.96 20.5-7.5 7.905 6.268 9.071 13.768 3.5 22.5-9.895 12.891-22.395 22.391-37.5 28.5a29.964 29.964 0 0 0-7 6c9.217-2.429 18.217-5.762 27-10a228.258 228.258 0 0 1 12-2.5 584.805 584.805 0 0 1 24 2.5c10.87 4.04 11.87 10.04 3 18-9.294 4.496-18.961 5.496-29 3a189.703 189.703 0 0 0-28-7.5c-13.566 3.616-25.566 10.116-36 19.5a226.74 226.74 0 0 1 22 4c4.946 4.3 5.279 8.967 1 14-10.051 6.511-21.051 8.844-33 7a1583.093 1583.093 0 0 1-22.5-3.5c-9.23 1.562-17.397 5.396-24.5 11.5-13.773 12.428-25.273 26.595-34.5 42.5-5.124 10.205-6.79 20.872-5 32a1037.69 1037.69 0 0 1 33 97 89.08 89.08 0 0 0 7.5-28 564.627 564.627 0 0 0-10.5-31c-.667-5-.667-10 0-15l7-21c4.169-9.677 11.002-12.51 20.5-8.5 5.389 4.789 7.389 10.789 6 18 .342 9.288-1.491 18.122-5.5 26.5a256.871 256.871 0 0 0-10 19c-2.084 5.176-3.084 10.509-3 16l3-3a169.367 169.367 0 0 1 11-22c13.049-12.514 28.049-16.18 45-11 .912 3.952.245 7.619-2 11-5.351 5.919-11.517 10.753-18.5 14.5a739.888 739.888 0 0 0-33 15c-7.636 12.573-12.303 26.24-14 41 6.729 39.603 9.562 79.436 8.5 119.5a273.134 273.134 0 0 1 29-46 221.15 221.15 0 0 1 12-47l31-64a247.917 247.917 0 0 0 11-47 198.719 198.719 0 0 0 9.5-45c-5.361-33.411 3.306-62.578 26-87.5 1.444-.781 2.777-.614 4 .5a189.453 189.453 0 0 0 10.5 27 493.632 493.632 0 0 0 24 29 204.346 204.346 0 0 1 16 29c8.37 25.347 13.2 51.347 14.5 78 .44 48.024-21.89 79.858-67 95.5a532.396 532.396 0 0 0-64 25c-12.713 7.381-23.546 16.881-32.5 28.5-12.257 19.514-20.923 40.514-26 63a8245.63 8245.63 0 0 0-9 109c-2.141 35.918-.141 71.585 6 107a234.093 234.093 0 0 1 10.5 39c-.152 5.32-2.819 7.49-8 6.5-3.946-3.39-6.78-7.55-8.5-12.5-8.443-25.32-13.443-51.32-15-78a32.5 32.5 0 0 0-3-7 934.673 934.673 0 0 0-49.5-53.5l-10-6c-25.458-7.56-48.458-19.56-69-36a184.912 184.912 0 0 1-25.5-30.5 692.842 692.842 0 0 1-36-96c-3.769-18.679-3.269-37.179 1.5-55.5-29.187-24.547-44.354-56.047-45.5-94.5a469.95 469.95 0 0 1 3-67c2.244-9.245 7.744-15.745 16.5-19.5 11.644-4.604 23.31-4.604 35 0 13.774 4.966 25.607 12.799 35.5 23.5l17 21c19.333 18 38 36.667 56 56a289.807 289.807 0 0 1 22 33 2414.391 2414.391 0 0 1 29 59 251.916 251.916 0 0 1 33.5 46c3.859-58.487-3.641-115.487-22.5-171-2.37-7.535-7.203-12.535-14.5-15a20.2 20.2 0 0 0-6 1.5c-8.54 10.217-18.54 18.551-30 25-6.097 2.157-12.097 1.99-18-.5-5.139-5.492-5.306-11.158-.5-17 12.186-12.68 27.02-18.514 44.5-17.5 8.808 5.195 9.808 4.195 3-3a36.16 36.16 0 0 0-7-4 266.847 266.847 0 0 0-29-2c-12.61-1.545-22.11-7.711-28.5-18.5-1.858-6.081-.025-10.581 5.5-13.5 7.441-2.171 14.774-1.838 22 1 12.468 7.457 23.468 16.79 33 28 6.826 3.169 12.659 7.669 17.5 13.5-1.153-7.475-3.153-14.808-6-22a866.024 866.024 0 0 1-20-52c-4.849-9.343-11.015-17.676-18.5-25-13.177 7.392-27.177 12.392-42 15a55.88 55.88 0 0 1-20-5.5c-7.602-5.946-7.935-12.28-1-19 9.605-6.054 19.939-7.72 31-5a290.008 290.008 0 0 1 17 8c3.916 1.451 7.916 2.118 12 2L749 377.5 727.5 346a27.36 27.36 0 0 0-11.5-3.5c-16.092 3.956-31.258 1.789-45.5-6.5-10.676-7.712-11.676-16.379-3-26 13.921-6.006 26.588-4.006 38 6a77.469 77.469 0 0 1 13.5 17.5c1.95 1.888 4.117 3.054 6.5 3.5-3.097-14.033-9.931-25.866-20.5-35.5-7.82-12.628-7.32-24.795 1.5-36.5 14.46-4.904 21.793.429 22 16a85.463 85.463 0 0 1-5.5 22.5 42.479 42.479 0 0 0 0 13 129.217 129.217 0 0 0 8 20c.991-.93 1.491-2.096 1.5-3.5-4.502-12.434-4.002-24.601 1.5-36.5 3.167-4.5 7-8.333 11.5-11.5 4.928-1.643 8.428-.143 10.5 4.5 2.629 11.523.629 22.189-6 32l-11 11c-3.197 6.277-3.197 12.611 0 19a342.191 342.191 0 0 0 40 48 1225.405 1225.405 0 0 1-7-33 195.843 195.843 0 0 1-1-55 2794.875 2794.875 0 0 1 9-46c.667-4 .667-8 0-12a11.532 11.532 0 0 0-4.5-3.5l-22-1c-7.044-3.53-7.71-7.863-2-13 5.845-2.248 11.512-1.915 17 1a70.588 70.588 0 0 1 10.5 9.5c.446-7.13-2.054-12.963-7.5-17.5-9.635-3.395-17.801-8.895-24.5-16.5-10.513-21.412-4.013-29.245 19.5-23.5 9.877 3.863 15.044 11.03 15.5 21.5l1 30a54.628 54.628 0 0 0 2 7 604.446 604.446 0 0 1 25-63c1.663-8.672-.504-16.172-6.5-22.5-11.809-1.366-22.809-5.032-33-11-5.835-4.17-9.835-9.67-12-16.5 1.095-6.262 4.762-10.096 11-11.5 15.095-1.202 26.595 4.631 34.5 17.5a72.293 72.293 0 0 1 7 21 54.224 54.224 0 0 1 4 9c4.701-8.451 8.034-17.451 10-27 1.669-10.022-1.831-17.522-10.5-22.5a168.609 168.609 0 0 0-25-6c-8.867-2.369-14.533-7.869-17-16.5 2.405-7.977 7.905-11.977 16.5-12 11.443 1.221 20.443 6.554 27 16a306.424 306.424 0 0 0 13 25 38.186 38.186 0 0 0 1-15c-10.752-13.86-13.419-29.194-8-46a27.248 27.248 0 0 1 3.5-5Zm3 4c7.713 1.225 11.88 5.891 12.5 14 1.758 9.653.092 18.653-5 27-.76-7.08-1.926-14.08-3.5-21a3.646 3.646 0 0 0-1.5 1 114.825 114.825 0 0 0 0 18c-7.89-11.058-9.556-23.058-5-36a10.526 10.526 0 0 0 2.5-3Zm-44 25c6.593-.685 12.593.815 18 4.5a116.26 116.26 0 0 1 11.5 13.5c.667 1 .667 2 0 3a113.414 113.414 0 0 0-8.5-5.5c-1.135-.749-2.135-.583-3 .5 2.958 2.824 5.958 5.658 9 8.5-11.67-.112-22.337-3.446-32-10-5.333-4-5.333-8 0-12a38.715 38.715 0 0 0 5-2.5Zm96 21c2.915.413 4.748 2.079 5.5 5 1.777 13.671-2.223 25.337-12 35 2.349-16.96 1.016-17.626-4-2-4.242-15.053-.742-27.72 10.5-38Zm-106 15a27.752 27.752 0 0 1 11 3.5 119.16 119.16 0 0 1 13.5 12.5c2.204 2.73 3.537 5.73 4 9l-3.5-3.5c-1.444-.781-2.777-.614-4 .5a21.754 21.754 0 0 0 6 7.5c-12.821.172-23.988-3.995-33.5-12.5-7.289-9.412-5.122-15.078 6.5-17Zm131 26c6.83-1.022 11.996 1.312 15.5 7-.913 8.587-5.747 13.754-14.5 15.5-12.833 1.648-25.5.648-38-3 10.127-7.157 21.293-9.99 33.5-8.5a4.457 4.457 0 0 0 1.5-2 61.04 61.04 0 0 0-7.5-2 21.15 21.15 0 0 1-10.5.5c6.378-3.621 13.045-6.121 20-7.5Zm-62 38c9.001-1.165 17.335.668 25 5.5a34.706 34.706 0 0 1 6.5 7.5c1.5 7.833-1.667 11-9.5 9.5-9.633-3.299-17.966-8.632-25-16 3.9.686 7.733 1.853 11.5 3.5.684-1.284.517-2.451-.5-3.5a3266.84 3266.84 0 0 1-11-5c1.237-.232 2.237-.732 3-1.5Zm-93 1c22.354-.138 31.52 10.862 27.5 33a168.466 168.466 0 0 0-6.5-10.5c-1.1-.432-1.767.068-2 1.5a33.033 33.033 0 0 0 4 8.5c-14.357-3.016-23.69-11.683-28-26 .783-2.938 2.45-5.104 5-6.5Zm70 77a107.438 107.438 0 0 1 4-20c-1.624-.14-2.79.527-3.5 2a207.074 207.074 0 0 0-4 16c-6.445-14.129-4.278-26.629 6.5-37.5 5.114-2.793 8.947-1.626 11.5 3.5.422 14.151-4.411 26.151-14.5 36Zm-63-31c3.646.077 6.979 1.077 10 3l-3 2c5.283 2.9 4.616 4.234-2 4a27.86 27.86 0 0 1-9-1.5c-1.829-1.113-2.663-2.613-2.5-4.5a40.747 40.747 0 0 1 6.5-3Zm-43 29c6.619 1.132 9.786 5.132 9.5 12 .746 9.448-.921 18.448-5 27-2.535-8.03-3.035-16.197-1.5-24.5-1.749-4.093-3.249-3.593-4.5 1.5l-.5 6.5c4.393 18.72 2.226 19.886-6.5 3.5-3.635-7.211-3.301-14.211 1-21 2.17-2.323 4.67-3.99 7.5-5Zm141 0c15.643-2.559 19.476 2.774 11.5 16-10.649 11.107-23.149 13.94-37.5 8.5a106.521 106.521 0 0 1 17-4.5v-3a444.881 444.881 0 0 1-21 3.5c7.85-10.083 17.85-16.917 30-20.5Zm-109 22c3.308-.526 5.474.807 6.5 4 1.348 7.518.014 14.518-4 21a160.621 160.621 0 0 1-11 13c.425-4.456 1.592-8.789 3.5-13l-.5-2c-3.177 3.013-5.343 6.679-6.5 11-2.916-13.927 1.084-25.26 12-34Zm211 41c2.391-2.115 3.724-4.781 4-8a4.934 4.934 0 0 0-3 .5 89.868 89.868 0 0 1-7 8.5 138.544 138.544 0 0 1 10.5-26 39.314 39.314 0 0 1 10.5-10.5c9.706-2.276 13.206 1.224 10.5 10.5-5.074 11.908-13.574 20.241-25.5 25Zm-43-27c7.535 1.699 12.369 6.366 14.5 14 .903 5.781.57 11.447-1 17-.119-3.51-1.286-6.51-3.5-9-.838 4.467-1.172 8.8-1 13-8.868-8.435-12.701-18.768-11.5-31a16.58 16.58 0 0 1 2.5-4Zm-40 4c8.329-.836 11.495 2.83 9.5 11-3.876 12.527-10.876 22.86-21 31 .053-2.288.386-4.621 1-7a799.532 799.532 0 0 0 7.5-21c-2.092.061-3.592 1.061-4.5 3a98.289 98.289 0 0 0-7 18c-1.755-10.979.578-20.979 7-30a100.813 100.813 0 0 1 7.5-5Zm-199 5c14.852-1.241 26.185 4.426 34 17l-1 1a171.26 171.26 0 0 0-17-5l-3 1 .5 1a96.333 96.333 0 0 1 28.5 11.5 112.26 112.26 0 0 1-29 1c-11.366-1.491-19.033-7.491-23-18 .434-2.316 1.434-4.316 3-6l7-3.5Zm312 27a79.673 79.673 0 0 1 20 3.5c2.52 2.854 2.18 5.521-1 8-6.745 4.167-14.079 5.5-22 4-29.569-5.847-29.236-8.014 1-6.5v-3a111.396 111.396 0 0 1-21-1.5c7.595-2.536 15.262-4.036 23-4.5Zm-170 15c12.508.678 18.674 7.344 18.5 20-.412-2.497-1.578-4.497-3.5-6-1.381.5-2.047 1.5-2 3 1.523 4.004 2.69 8.004 3.5 12-7.576-4.241-13.91-9.908-19-17-2.617-4.922-1.783-8.922 2.5-12Zm89 23c8.007-.166 16.007 0 24 .5 7.037 1.804 7.704 4.804 2 9a29.639 29.639 0 0 1-13 4 135.265 135.265 0 0 1-33-3.5l1.5-1a511.06 511.06 0 0 1 15.5-3.5c-3.813-1.262-7.813-1.929-12-2a533.731 533.731 0 0 0 15-3.5Zm7 283a4172.907 4172.907 0 0 0 56-53.5c28.967-14.633 49.13-37.133 60.5-67.5 1.32-3.608 1.99-7.275 2-11-8.92 21.574-21.76 40.408-38.5 56.5l-10.5 6.5c1.983-4.977 4.316-9.977 7-15a2076.533 2076.533 0 0 0 26-85c1.89-10.386 1.89-20.719 0-31-.95 9.34-1.95 18.673-3 28-.35 4.056-1.68 7.723-4 11a287.595 287.595 0 0 0-19-66 68.39 68.39 0 0 1-3-16 3.647 3.647 0 0 0-1.5-1 11.577 11.577 0 0 0-2 5 308.078 308.078 0 0 1 2.5 14 795.316 795.316 0 0 1 13 54c1.54 12.033.207 23.7-4 35a146.306 146.306 0 0 0-4-13 178.668 178.668 0 0 1-19-46 53.599 53.599 0 0 0 2 22 1028.307 1028.307 0 0 0 18 39 155.148 155.148 0 0 1-5 41 64.902 64.902 0 0 1-6 14 277.267 277.267 0 0 1-29.5 33 373.172 373.172 0 0 0 7-54c-1.322-.17-2.489.163-3.5 1a691.678 691.678 0 0 1-8 47c-2.213 8.929-6.38 16.762-12.5 23.5a395.393 395.393 0 0 0-35.5 31.5c1.14-12.552 4.473-24.552 10-36a2002.457 2002.457 0 0 0 28-53 161.903 161.903 0 0 0 7-19 8685.951 8685.951 0 0 0 16-81 767.297 767.297 0 0 1 6-57c2.413-12.111 7.58-22.778 15.5-32a7.248 7.248 0 0 1 2.5 2 111.939 111.939 0 0 0 11 26c9.67 12.333 19.33 24.667 29 37a89.957 89.957 0 0 1 8 16c2.47 10.534 4.13 21.2 5 32a180.522 180.522 0 0 1 7.5 43c-1.31 38.821-19.31 66.655-54 83.5a671.44 671.44 0 0 0-77 35.5Zm-190-264c10.612-.68 20.612 1.486 30 6.5-6.028.17-12.028.67-18 1.5a3.647 3.647 0 0 0 1 1.5 172.954 172.954 0 0 0 22 2c-14.203 10.791-29.536 12.791-46 6-4.806-4.727-4.14-9.06 2-13l9-4.5Zm-31 181c-24.477-6.239-46.477-17.239-66-33-1.083.865-1.249 1.865-.5 3 19.652 19.602 43.152 32.435 70.5 38.5 5.12 2.06 10.12 4.393 15 7a1560.145 1560.145 0 0 0 55 38c-8.686.168-17.352.668-26 1.5l1.5 1a210.997 210.997 0 0 0 26.5 3.5 51.448 51.448 0 0 1 11 3 382.212 382.212 0 0 1 30 22 270.302 270.302 0 0 0-32-5 1841.61 1841.61 0 0 1-79-3c-40.105-6.782-68.605-28.615-85.5-65.5-5.361-13.524-7.361-27.524-6-42a213.633 213.633 0 0 0 3.5-27 636.912 636.912 0 0 1-2.5-39c3.379-12.034 11.379-18.034 24-18 24.619 2.311 43.286 13.977 56 35 11.641 12.982 24.475 24.482 38.5 34.5 18.167 16.548 33.333 35.381 45.5 56.5a1509.743 1509.743 0 0 1 29.5 56.5c-9.396-4.011-18.396-9.011-27-15a327.688 327.688 0 0 1-35.5-28.5l-36-60a107.994 107.994 0 0 0-10.5-13.5c-.983-.591-1.65-.257-2 1a936.625 936.625 0 0 1 35 62c-1.408.315-2.741-.018-4-1-34.194-23.235-60.361-53.402-78.5-90.5-.889-1.388-1.389-1.222-1.5.5 11.637 29.461 28.637 55.294 51 77.5Zm57-111c16.361 3.015 30.361 10.515 42 22.5-2.116-.282-4.283-.782-6.5-1.5l-2.5 1a14.84 14.84 0 0 0 4 3.5c-12.719 2.037-24.719.037-36-6-4.506-2.499-7.506-6.166-9-11a9.62 9.62 0 0 1 1.5-4.5c2.095-1.625 4.261-2.958 6.5-4Zm117 8c4.048-.059 7.215 1.608 9.5 5 4.045 18.823.045 35.823-12 51a86.578 86.578 0 0 0-1.5-13 3.647 3.647 0 0 0-1.5 1c1.199 19.238-1.134 20.238-7 3-2.866-17.563 1.3-33.23 12.5-47Zm-81 35a18.453 18.453 0 0 1 6 .5 145.097 145.097 0 0 0-20 11c-.837 1.011-1.17 2.178-1 3.5 8.27-3.799 16.604-7.632 25-11.5 3.914-.816 4.747.351 2.5 3.5-10.235 11.367-22.735 19.034-37.5 23-3.16-.822-4.827-2.822-5-6 1.882-6.726 5.882-11.892 12-15.5 5.698-3.684 11.698-6.518 18-8.5Zm90 29c5.731-12.863 15.731-20.363 30-22.5 2.843-.446 5.676-.946 8.5-1.5 3.691-.039 5.358 1.628 5 5a69.2 69.2 0 0 1-4.5 6.5c-12.054 9.36-25.387 16.027-40 20a3401.34 3401.34 0 0 0 6-8l-1-1.5-4 2Zm-143 213a209.449 209.449 0 0 0-12-12.5 8.43 8.43 0 0 0-4-.5 4.934 4.934 0 0 0 .5 3 216.061 216.061 0 0 1 16 19 525.071 525.071 0 0 0 21.5 53.5c-2.775-.374-5.442-1.374-8-3-11.684-7.675-22.184-16.842-31.5-27.5l-19-23c3.405 9.464 8.405 18.13 15 26l17.5 17.5a1604.928 1604.928 0 0 0 31.5 21.5c6.734 8.799 11.9 18.465 15.5 29-21.257-7.795-41.257-17.961-60-30.5-16.905-11.994-29.405-27.494-37.5-46.5l-18-60c-12.891-22.568-16.558-46.568-11-72a3.647 3.647 0 0 1 1.5-1c12.061 8.529 25.395 14.029 40 16.5a391.92 391.92 0 0 0 69 3c29.345 26.707 43.678 60.041 43 100a426.967 426.967 0 0 1-10.5 80.5 134.865 134.865 0 0 0 0 20 94.102 94.102 0 0 1-10-13 1634.517 1634.517 0 0 0-23-49c-2.183-5.495-2.849-11.161-2-17 8.403-29.682 9.736-59.682 4-90a3.647 3.647 0 0 0-1.5-1c1.567 30.395-1.267 60.395-8.5 90a516.968 516.968 0 0 1-9-24 2198.268 2198.268 0 0 0-22-77c-.893-1.211-1.726-1.211-2.5 0a416.908 416.908 0 0 1 15 68Zm38-88c18.118-.387 35.118 3.78 51 12.5 20.345 20.702 28.511 45.535 24.5 74.5a13335.282 13335.282 0 0 1-8 98 7421.414 7421.414 0 0 0-2.5 57 488.538 488.538 0 0 0-33.5-31c-5.091-8.995-6.758-18.661-5-29a910.606 910.606 0 0 0 14-65c3.564-28.281-.769-55.281-13-81a219.11 219.11" style="opacity:.905"/> </svg>