<svg xmlns="http://www.w3.org/2000/svg" style="shape-rendering:geometricPrecision;text-rendering:geometricPrecision;image-rendering:optimizeQuality;fill-rule:evenodd;clip-rule:evenodd" viewBox="169.51 599.4 390.99 114.44">
<path fill="#f9f7f3" d="M507.5 599.5a45.902 45.902 0 0 1 15 1.5 6.293 6.293 0 0 1 1 3 746.699 746.699 0 0 0-4 66 205.63 205.63 0 0 0 2.5 28.5c.878 4.76 3.045 8.76 6.5 12a44.888 44.888 0 0 0 10.5-9c7.787-11.244 13.12-23.577 16-37 1.699-.906 3.533-1.239 5.5-1-3.253 18.005-10.919 33.838-23 47.5-9.884 4.731-19.051 3.565-27.5-3.5a67.09 67.09 0 0 1-8-19c-12.774 23.905-31.607 30.405-56.5 19.5-3.516-2.871-6.183-6.371-8-10.5a77.594 77.594 0 0 1-12 13.5c-9.565 3.627-18.065 1.794-25.5-5.5l-3-7c-4.694 12.098-13.194 16.264-25.5 12.5a34.706 34.706 0 0 1-7.5-6.5 603.255 603.255 0 0 1-2-46c-.118-2.073-1.118-3.407-3-4-2.987 1.654-5.321 3.987-7 7a79.664 79.664 0 0 0-7 16l-1 24a26.552 26.552 0 0 1-2.5 9.5c-2.079.808-4.079.641-6-.5a57.88 57.88 0 0 1-5.5-15c-6.694 14.342-17.194 18.175-31.5 11.5-4.074-3.543-6.241-8.043-6.5-13.5a72.4 72.4 0 0 1-8 14c-9.322 6.887-18.322 6.554-27-1-8.177-21.44-2.677-38.607 16.5-51.5 25.867-6.469 36.867 3.531 33 30-.334 27.312 6.499 29.479 20.5 6.5 2.256-5.76 2.756-11.76 1.5-18 .334-7.012.834-14.012 1.5-21 5.317-2.587 10.65-2.587 16 0 .128 3.014.128 6.014 0 9 7.636-11.296 16.969-12.963 28-5a30.13 30.13 0 0 1 3 12 875.2 875.2 0 0 0 2 41c.414.457.914.791 1.5 1 6.738-4.777 11.572-11.11 14.5-19a203.586 203.586 0 0 1 3-33c.388-.928 1.055-1.595 2-2 5.511-1.168 11.011-1.001 16.5.5.457.414.791.914 1 1.5a116.201 116.201 0 0 0-3 31l.5 17c.118 2.073 1.118 3.407 3 4 13.736-8.471 20.403-20.804 20-37 5.311-14.746 15.811-20.913 31.5-18.5 10.261 1.263 16.261 6.93 18 17-2.129 1.103-4.463 1.603-7 1.5-10.042-2.154-19.376-.488-28 5-3.34 11.457-.673 21.291 8 29.5 7.312 3.547 14.312 2.88 21-2 18.23-15.02 24.73-34.187 19.5-57.5a697.716 697.716 0 0 1 3.5-48c1.291.237 2.291-.096 3-1Zm-220 55c6.122 2.565 8.956 7.231 8.5 14-3.513 13.025-9.179 25.025-17 36-1.46 2.71-3.46 3.376-6 2-5.328-14.077-4.328-27.744 3-41 3.095-4.598 6.928-8.265 11.5-11Zm177 4c6.49.818 10.49 4.485 12 11-4.822.223-9.822.723-15 1.5a25.648 25.648 0 0 0-7.5 2.5c-.257-2.517.41-4.85 2-7 2.157-3.476 4.99-6.143 8.5-8Z" style="opacity:.951"/>
<path fill="#f9f7f3" d="M195.5 601.5c31.093-2.38 49.926 11.62 56.5 42 2.874 19.835-1.46 37.835-13 54-12.459 12.822-27.292 16.988-44.5 12.5-3.371-3.236-5.871-7.069-7.5-11.5a389.975 389.975 0 0 1 0-66c-6.967 7.033-8.8 15.199-5.5 24.5-1.702 1.718-3.535 1.885-5.5.5-3.545-13.059.289-23.225 11.5-30.5a112.97 112.97 0 0 1 15-.5 663.255 663.255 0 0 0-2 59c4.247-.322 8.247.511 12 2.5-.763.944-1.763 1.444-3 1.5-2.838-1.602-5.838-2.102-9-1.5 1.399 4.585 1.066 9.085-1 13.5a28.043 28.043 0 0 1-5 1.5c5.562 7.415 12.228 8.415 20 3 13.667-10.824 21.5-24.991 23.5-42.5 2.651-16.719-.682-32.053-10-46-8.022-10.772-18.522-14.938-31.5-12.5-11.448 4.039-17.115 12.206-17 24.5-3 1.333-6 1.333-9 0-1.131-1.574-1.298-3.241-.5-5 5.263-11.438 13.763-19.105 25.5-23Z" style="opacity:.946"/>
<path fill="#f9f7f3" d="M401.5 640.5a84.902 84.902 0 0 1 13 .5c1.73 8.937-1.937 12.604-11 11-3.149-3.341-3.816-7.175-2-11.5Z" style="opacity:.916"/></svg>