<svg xmlns="http://www.w3.org/2000/svg" style="shape-rendering:geometricPrecision;text-rendering:geometricPrecision;image-rendering:optimizeQuality;fill-rule:evenodd;clip-rule:evenodd" viewBox="133.29 221.4 462.21 187.91">
<path fill="#073D69" d="M149.5 221.5c4.034.005 8.034.338 12 1a1685.509 1685.509 0 0 0-2 105 143.207 143.207 0 0 1 26 7c4.242.097 7.242-1.737 9-5.5 7.167-1.433 7.834.234 2 5-6.112 2.414-12.446 3.081-19 2-6.083-2.773-12.416-4.106-19-4-4.576 7.043-10.576 8.376-18 4a29.768 29.768 0 0 0 6-7 59.176 59.176 0 0 1-1.5-7.5c-.773-28.009-.606-56.009.5-84l-.5-7c-6.343 10.889-8.176 22.556-5.5 35h-5c-2.708-12.771-.875-24.771 5.5-36 2.795-3.311 5.961-5.977 9.5-8Z" style="opacity:.943"/>
<path fill="#073D69" d="M482.5 221.5a69.234 69.234 0 0 1 16 1c.233 7.21.567 14.376 1 21.5 14.127 3.369 27.127 1.036 39-7a33.816 33.816 0 0 1 5-6c1.941-.743 3.774-.576 5.5.5-.446 2.383-1.612 4.55-3.5 6.5-9.818 7.04-20.818 10.207-33 9.5a177.117 177.117 0 0 1-15-1 836.064 836.064 0 0 0-.5 63 67.765 67.765 0 0 0 3 16c3.191 8.352 7.524 8.685 13 1a97.042 97.042 0 0 0 9-14c-.3-10.235 2.367-19.568 8-28 9.995-8.326 21.162-10.16 33.5-5.5 6.787 3.408 10.121 8.908 10 16.5a437.439 437.439 0 0 0-21-.5c-5.045.958-9.712 2.791-14 5.5-3.338 12.522-.005 22.688 10 30.5 11.642 1.943 21.142-1.89 28.5-11.5 5.941-8.551 10.275-17.885 13-28 1.699-.906 3.533-1.239 5.5-1-3.361 15.236-10.694 28.069-22 38.5-12.204 6.135-24.87 7.135-38 3-5.588-2.586-9.421-6.753-11.5-12.5-7.319 15.883-18.819 20.05-34.5 12.5l-4.5-4.5a135.457 135.457 0 0 1-7-17c-12.777 23.594-31.611 30.094-56.5 19.5-5.917-5.897-9.25-13.064-10-21.5a207.178 207.178 0 0 1-17 9c5.704 24.365 2.871 47.698-8.5 70-4.367 7.577-10.2 13.743-17.5 18.5-8.113 3.593-16.447 4.26-25 2-4.434-2.103-6.934-5.603-7.5-10.5-2.481-36.554 12.686-62.721 45.5-78.5-1.394-7.466-5.061-13.466-11-18-3.036-.638-6.036-.472-9 .5a100.318 100.318 0 0 0-8-1.5 3.647 3.647 0 0 1-1-1.5 79.56 79.56 0 0 0 18.5-21c4.346-9.669 1.18-13.502-9.5-11.5-9.293 4.075-13.293 11.242-12 21.5-12.624 2.577-15.124-1.09-7.5-11 9.428-13.032 21.594-16.532 36.5-10.5 7.07 5.6 7.903 12.1 2.5 19.5a109.279 109.279 0 0 0-7.5 10c9.867 3.033 16.701 9.367 20.5 19a155.855 155.855 0 0 0 18-11c4.047-21.708 16.881-30.208 38.5-25.5 8.099 2.738 12.266 8.238 12.5 16.5a215.63 215.63 0 0 0-25.5 1.5 31.646 31.646 0 0 0-9 4.5c-3.071 10.921-.738 20.421 7 28.5 7.446 4.708 14.779 4.374 22-1 9.586-7.323 16.086-16.823 19.5-28.5.405-19.005.905-38.005 1.5-57-6.99-1.931-13.99-2.098-21-.5a18.924 18.924 0 0 0-5 3c-8.896 1.208-9.23-.125-1-4 8.948-3.162 17.948-3.329 27-.5a147.73 147.73 0 0 1 4-19Zm-42 59c6.286.781 10.286 4.281 12 10.5-7.787.3-15.287 1.8-22.5 4.5.025-2.42.691-4.753 2-7 2.157-3.476 4.99-6.143 8.5-8Zm110 0c6.671.016 10.671 3.349 12 10a107.416 107.416 0 0 0-22.5 5c1.279-6.463 4.779-11.463 10.5-15Zm-171 43c4.671 25.112-.496 48.445-15.5 70-13.081 16.129-20.915 13.796-23.5-7 2.138-27.982 15.138-48.982 39-63Z" style="opacity:.938"/>
<path fill="#073D69" d="M208.5 262.5h14c.575 10.616-3.925 13.95-13.5 10-1.735-3.29-1.901-6.623-.5-10Z" style="opacity:.935"/>
<path fill="#073D69" d="M274.5 263.5a112.97 112.97 0 0 1 15 .5c8.553 2.621 11.719 8.121 9.5 16.5a46.693 46.693 0 0 1-10.5 15 59.307 59.307 0 0 1 13 6.5 77.182 77.182 0 0 1 8.5 11.5c11.18-4.186 20.347-11.02 27.5-20.5 1.759-.798 3.426-.631 5 .5a65.052 65.052 0 0 1-11 12.5 333.046 333.046 0 0 1-21 12c5.747 26.019 1.913 50.519-11.5 73.5-9.612 15.057-23.112 20.557-40.5 16.5-3.234-1.944-5.4-4.778-6.5-8.5-3.76-36.487 10.74-62.82 43.5-79 .56-7.397-2.106-13.563-8-18.5a11.532 11.532 0 0 0-5.5-1.5c-4.477.928-8.977.928-13.5 0a4.934 4.934 0 0 1 .5-3c9.143-7.131 15.976-15.965 20.5-26.5-1.075-4.044-3.742-5.878-8-5.5-11.98 1.821-17.48 8.821-16.5 21a34.041 34.041 0 0 1-7.5 1.5c-3.298 14.77-9.798 28.27-19.5 40.5-6.826 6.122-14.66 7.622-23.5 4.5-6.33-3.136-9.83-8.303-10.5-15.5-2.065-13.096-1.565-26.096 1.5-39 6.299-1.563 12.466-1.229 18.5 1a227.899 227.899 0 0 0-2 47c-.061 5.237 2.106 6.737 6.5 4.5 9.29-9.408 16.456-20.242 21.5-32.5 2.802-7.172 5.136-14.172 7-21 4.311-6.718 10.144-11.385 17.5-14Zm22 59c3.296 26.674-2.871 51.007-18.5 73-3.461 4.797-7.961 7.631-13.5 8.5-4.367-2.555-6.867-6.388-7.5-11.5-.572-31.198 12.594-54.532 39.5-70Z" style="opacity:.936"/>
</svg>