<?xml version="1.0" encoding="UTF-8"?>
<!DOCTYPE svg PUBLIC "-//W3C//DTD SVG 1.1//EN" "http://www.w3.org/Graphics/SVG/1.1/DTD/svg11.dtd">
<svg xmlns="http://www.w3.org/2000/svg" version="1.1" width="1366px" height="608px" style="shape-rendering:geometricPrecision; text-rendering:geometricPrecision; image-rendering:optimizeQuality; fill-rule:evenodd; clip-rule:evenodd" xmlns:xlink="http://www.w3.org/1999/xlink">
<g><path style="opacity:0.946" fill="#0b2c55" d="M 746.5,58.5 C 747.5,58.5 748.5,58.5 749.5,58.5C 757.292,91.0493 747.626,116.883 720.5,136C 718.35,137.411 716.016,138.245 713.5,138.5C 708.241,115.62 712.741,94.9535 727,76.5C 733.096,69.898 739.596,63.898 746.5,58.5 Z"/></g>
<g><path style="opacity:0.936" fill="#0b2c55" d="M 656.5,77.5 C 658.199,77.3398 659.866,77.5065 661.5,78C 610.569,110.115 593.069,155.282 609,213.5C 624.773,249.934 652.273,271.434 691.5,278C 731.849,281.331 765.183,267.664 791.5,237C 792.167,236.333 792.833,236.333 793.5,237C 769.739,282.391 732.073,303.058 680.5,299C 634.876,291.779 603.043,266.946 585,224.5C 568.579,174.906 579.413,132.406 617.5,97C 629.208,87.8124 642.208,81.3124 656.5,77.5 Z"/></g>
<g><path style="opacity:0.926" fill="#0b2c55" d="M 671.5,84.5 C 687.164,90.3229 698.997,100.656 707,115.5C 709.634,123.369 710.134,131.369 708.5,139.5C 697.592,139.131 689.092,134.464 683,125.5C 675.907,112.799 672.073,99.1324 671.5,84.5 Z"/></g>
<g><path style="opacity:0.935" fill="#0b2c55" d="M 671.5,134.5 C 685.23,133.542 696.897,137.875 706.5,147.5C 689.85,158.998 671.516,166.498 651.5,170C 643.728,170.931 636.061,170.598 628.5,169C 638.05,151.259 652.383,139.759 671.5,134.5 Z"/></g>
<g><path style="opacity:0.893" fill="#0b2c55" d="M 729.5,136.5 C 742.51,135.74 755.177,137.407 767.5,141.5C 753.667,151.877 738.667,154.043 722.5,148C 720.649,146.316 718.982,144.483 717.5,142.5C 721.069,139.539 725.069,137.539 729.5,136.5 Z"/></g>
<g><path style="opacity:0.889" fill="#0b2c55" d="M 708.5,149.5 C 712.567,155.263 713.401,161.596 711,168.5C 706.053,178.447 698.72,186.114 689,191.5C 686.576,173.349 693.076,159.349 708.5,149.5 Z"/></g>
<g><path style="opacity:0.93" fill="#0b2c55" d="M 714.5,149.5 C 744.769,155.44 762.103,173.773 766.5,204.5C 734.749,199.75 717.415,181.416 714.5,149.5 Z"/></g>
<g><path style="opacity:0.943" fill="#727175" d="M 73.5,367.5 C 90.5033,367.333 107.503,367.5 124.5,368C 150.121,372.313 161.288,387.479 158,413.5C 154.638,430.86 144.138,440.693 126.5,443C 113.171,443.5 99.8375,443.667 86.5,443.5C 86.5,455.167 86.5,466.833 86.5,478.5C 82.1667,478.5 77.8333,478.5 73.5,478.5C 73.5,441.5 73.5,404.5 73.5,367.5 Z M 86.5,380.5 C 98.1714,380.333 109.838,380.5 121.5,381C 140.846,384.188 148.346,395.355 144,414.5C 140.244,423.638 133.41,428.805 123.5,430C 111.171,430.5 98.8378,430.667 86.5,430.5C 86.5,413.833 86.5,397.167 86.5,380.5 Z"/></g>
<g><path style="opacity:0.904" fill="#727175" d="M 207.5,367.5 C 212.167,367.5 216.833,367.5 221.5,367.5C 221.333,391.836 221.5,416.169 222,440.5C 226.129,457.455 236.962,466.122 254.5,466.5C 272.112,466.035 282.945,457.368 287,440.5C 287.5,416.169 287.667,391.836 287.5,367.5C 292.167,367.5 296.833,367.5 301.5,367.5C 301.667,391.502 301.5,415.502 301,439.5C 297.181,466.189 281.681,479.522 254.5,479.5C 228.096,479.248 212.596,466.248 208,440.5C 207.5,416.169 207.333,391.836 207.5,367.5 Z"/></g>
<g><path style="opacity:0.925" fill="#727175" d="M 362.5,367.5 C 367.762,367.195 372.928,367.529 378,368.5C 399.333,397.167 420.667,425.833 442,454.5C 442.5,425.502 442.667,396.502 442.5,367.5C 446.833,367.5 451.167,367.5 455.5,367.5C 455.5,404.5 455.5,441.5 455.5,478.5C 450.821,478.666 446.155,478.499 441.5,478C 419.635,449.769 398.135,421.269 377,392.5C 376.5,421.165 376.333,449.831 376.5,478.5C 371.833,478.5 367.167,478.5 362.5,478.5C 362.5,441.5 362.5,404.5 362.5,367.5 Z"/></g>
<g><path style="opacity:0.916" fill="#727175" d="M 504.5,367.5 C 533.167,367.5 561.833,367.5 590.5,367.5C 590.5,371.833 590.5,376.167 590.5,380.5C 578.5,380.5 566.5,380.5 554.5,380.5C 554.5,413.167 554.5,445.833 554.5,478.5C 549.833,478.5 545.167,478.5 540.5,478.5C 540.5,445.833 540.5,413.167 540.5,380.5C 528.5,380.5 516.5,380.5 504.5,380.5C 504.5,376.167 504.5,371.833 504.5,367.5 Z"/></g>
<g><path style="opacity:0.919" fill="#727175" d="M 662.5,367.5 C 667.43,367.197 672.263,367.531 677,368.5C 693.167,404.833 709.333,441.167 725.5,477.5C 720.5,478.833 715.5,478.833 710.5,477.5C 706.593,468.607 702.593,459.774 698.5,451C 678.825,450.167 659.158,450.334 639.5,451.5C 635.5,460.167 631.5,468.833 627.5,477.5C 622.533,478.662 617.533,478.829 612.5,478C 629.036,441.096 645.702,404.263 662.5,367.5 Z M 668.5,383.5 C 676.725,400.958 684.725,418.624 692.5,436.5C 676.844,437.666 661.177,437.833 645.5,437C 653.658,419.353 661.325,401.52 668.5,383.5 Z"/></g>
<g><path style="opacity:0.909" fill="#0b2c55" d="M 773.5,367.5 C 778.167,367.5 782.833,367.5 787.5,367.5C 787.5,400.167 787.5,432.833 787.5,465.5C 803.5,465.5 819.5,465.5 835.5,465.5C 835.5,469.833 835.5,474.167 835.5,478.5C 814.833,478.5 794.167,478.5 773.5,478.5C 773.5,441.5 773.5,404.5 773.5,367.5 Z"/></g>
<g><path style="opacity:0.945" fill="#0b2c55" d="M 884.5,367.5 C 888.833,367.5 893.167,367.5 897.5,367.5C 897.333,390.836 897.5,414.169 898,437.5C 900.842,456.337 911.842,466.004 931,466.5C 950.624,465.873 961.624,455.873 964,436.5C 964.5,413.502 964.667,390.502 964.5,367.5C 968.833,367.5 973.167,367.5 977.5,367.5C 977.667,392.836 977.5,418.169 977,443.5C 971.364,467.674 956.031,479.674 931,479.5C 905.93,479.661 890.597,467.661 885,443.5C 884.5,418.169 884.333,392.836 884.5,367.5 Z"/></g>
<g><path style="opacity:0.925" fill="#0b2c55" d="M 1039.5,367.5 C 1044.18,367.334 1048.85,367.501 1053.5,368C 1075.12,396.744 1096.62,425.577 1118,454.5C 1118.5,425.502 1118.67,396.502 1118.5,367.5C 1123.17,367.5 1127.83,367.5 1132.5,367.5C 1132.5,404.5 1132.5,441.5 1132.5,478.5C 1127.24,478.805 1122.07,478.471 1117,477.5C 1095.67,448.833 1074.33,420.167 1053,391.5C 1052.5,420.498 1052.33,449.498 1052.5,478.5C 1048.17,478.5 1043.83,478.5 1039.5,478.5C 1039.5,441.5 1039.5,404.5 1039.5,367.5 Z"/></g>
<g><path style="opacity:0.919" fill="#0b2c55" d="M 1229.5,367.5 C 1234.43,367.197 1239.26,367.531 1244,368.5C 1260.66,404.995 1276.83,441.662 1292.5,478.5C 1287.5,478.5 1282.5,478.5 1277.5,478.5C 1273.83,469.167 1270.17,459.833 1266.5,450.5C 1246.49,450.167 1226.49,450.5 1206.5,451.5C 1202.57,460.125 1198.74,468.792 1195,477.5C 1190.26,478.469 1185.43,478.803 1180.5,478.5C 1196.56,441.389 1212.89,404.389 1229.5,367.5 Z M 1235.5,384.5 C 1243.98,401.473 1251.98,418.806 1259.5,436.5C 1243.84,437.666 1228.18,437.833 1212.5,437C 1220.58,419.669 1228.25,402.169 1235.5,384.5 Z"/></g>
<g><path style="opacity:0.535" fill="#88878b" d="M 942.5,514.5 C 947.59,515.912 947.59,517.745 942.5,520C 941.056,520.781 939.723,520.614 938.5,519.5C 939.857,517.814 941.19,516.148 942.5,514.5 Z"/></g>
<g><path style="opacity:0.757" fill="#88878b" d="M 355.5,522.5 C 361.262,522.149 366.928,522.649 372.5,524C 375.167,527.667 375.167,531.333 372.5,535C 378.036,539.838 377.703,544.171 371.5,548C 366.177,548.499 360.844,548.666 355.5,548.5C 355.5,539.833 355.5,531.167 355.5,522.5 Z M 359.5,526.5 C 362.518,526.335 365.518,526.502 368.5,527C 372.5,529 372.5,531 368.5,533C 365.518,533.498 362.518,533.665 359.5,533.5C 359.5,531.167 359.5,528.833 359.5,526.5 Z M 359.5,537.5 C 362.85,537.335 366.183,537.502 369.5,538C 372.825,539.614 373.158,541.614 370.5,544C 366.94,545.237 363.273,545.737 359.5,545.5C 359.5,542.833 359.5,540.167 359.5,537.5 Z"/></g>
<g><path style="opacity:0.683" fill="#88878b" d="M 398.5,523.5 C 400.035,522.212 401.701,522.212 403.5,523.5C 405.506,527.513 408.006,531.18 411,534.5C 413.167,530.833 415.333,527.167 417.5,523.5C 419.074,522.369 420.741,522.202 422.5,523C 419.207,528.418 416.04,533.918 413,539.5C 412.502,542.482 412.335,545.482 412.5,548.5C 411.167,548.5 409.833,548.5 408.5,548.5C 408.665,545.482 408.498,542.482 408,539.5C 405.059,533.938 401.892,528.605 398.5,523.5 Z"/></g>
<g><path style="opacity:0.692" fill="#88878b" d="M 485.5,522.5 C 488.187,522.336 490.854,522.503 493.5,523C 495.997,523.412 497.997,524.578 499.5,526.5C 498.855,527.646 498.022,528.646 497,529.5C 488.485,524.168 482.651,526.334 479.5,536C 481.916,543.706 486.916,546.373 494.5,544C 495.444,541.281 495.777,538.448 495.5,535.5C 496.833,535.5 498.167,535.5 499.5,535.5C 502.057,544.593 498.724,548.927 489.5,548.5C 481.27,548.441 476.603,544.275 475.5,536C 476.427,529.591 479.76,525.091 485.5,522.5 Z"/></g>
<g><path style="opacity:0.728" fill="#88878b" d="M 526.5,522.5 C 532.659,522.034 538.659,522.701 544.5,524.5C 547.222,527.71 548.056,531.376 547,535.5C 546.167,537.667 544.667,539.167 542.5,540C 544.291,542.414 545.957,544.914 547.5,547.5C 545.833,548.833 544.167,548.833 542.5,547.5C 541.041,545.417 539.708,543.25 538.5,541C 535.854,540.503 533.187,540.336 530.5,540.5C 530.5,543.167 530.5,545.833 530.5,548.5C 529.167,548.5 527.833,548.5 526.5,548.5C 526.5,539.833 526.5,531.167 526.5,522.5 Z M 530.5,526.5 C 533.85,526.335 537.183,526.502 540.5,527C 543.978,529.706 544.311,532.706 541.5,536C 537.94,537.237 534.273,537.737 530.5,537.5C 530.5,533.833 530.5,530.167 530.5,526.5 Z"/></g>
<g><path style="opacity:0.767" fill="#88878b" d="M 574.5,522.5 C 575.5,522.5 576.5,522.5 577.5,522.5C 577.008,529.321 577.675,535.988 579.5,542.5C 584.414,546.585 588.581,545.919 592,540.5C 592.499,534.509 592.666,528.509 592.5,522.5C 593.833,522.5 595.167,522.5 596.5,522.5C 596.891,529.921 596.391,537.254 595,544.5C 592.464,547.766 589.131,549.1 585,548.5C 580.408,549.204 577.075,547.537 575,543.5C 574.5,536.508 574.334,529.508 574.5,522.5 Z"/></g>
<g><path style="opacity:0.735" fill="#88878b" d="M 623.5,522.5 C 629.262,522.149 634.928,522.649 640.5,524C 645.302,528.686 645.636,533.686 641.5,539C 636.964,540.379 632.297,540.879 627.5,540.5C 627.5,543.167 627.5,545.833 627.5,548.5C 626.167,548.5 624.833,548.5 623.5,548.5C 623.5,539.833 623.5,531.167 623.5,522.5 Z M 627.5,526.5 C 630.518,526.335 633.518,526.502 636.5,527C 641.913,530.728 641.58,534.061 635.5,537C 632.854,537.497 630.187,537.664 627.5,537.5C 627.5,533.833 627.5,530.167 627.5,526.5 Z"/></g>
<g><path style="opacity:0.722" fill="#88878b" d="M 677.5,522.5 C 690.164,521.996 695.664,527.996 694,540.5C 690.016,548.042 683.849,550.542 675.5,548C 671.667,546.833 669.167,544.333 668,540.5C 665.69,531.447 668.857,525.447 677.5,522.5 Z M 677.5,526.5 C 687.878,526.031 691.712,530.698 689,540.5C 682.947,547.153 677.28,546.819 672,539.5C 670.571,533.7 672.404,529.367 677.5,526.5 Z"/></g>
<g><path style="opacity:0.732" fill="#88878b" d="M 751.5,522.5 C 757.262,522.149 762.928,522.649 768.5,524C 773.447,528.685 773.78,533.685 769.5,539C 764.964,540.379 760.297,540.879 755.5,540.5C 755.5,543.167 755.5,545.833 755.5,548.5C 754.167,548.5 752.833,548.5 751.5,548.5C 751.5,539.833 751.5,531.167 751.5,522.5 Z M 755.5,526.5 C 758.518,526.335 761.518,526.502 764.5,527C 768.944,529.111 769.611,532.111 766.5,536C 762.94,537.237 759.273,537.737 755.5,537.5C 755.5,533.833 755.5,530.167 755.5,526.5 Z"/></g>
<g><path style="opacity:0.714" fill="#88878b" d="M 803.5,522.5 C 805.167,522.5 806.833,522.5 808.5,522.5C 811.469,531.274 815.135,539.774 819.5,548C 815.616,549.006 813.283,547.506 812.5,543.5C 808.205,542.339 803.871,542.172 799.5,543C 798.139,544.584 797.472,546.418 797.5,548.5C 795.801,548.66 794.134,548.494 792.5,548C 796.308,539.552 799.975,531.052 803.5,522.5 Z M 805.5,528.5 C 807.438,531.445 809.105,534.612 810.5,538C 807.446,538.821 804.446,538.655 801.5,537.5C 803.122,534.592 804.456,531.592 805.5,528.5 Z"/></g>
<g><path style="opacity:0.733" fill="#88878b" d="M 843.5,522.5 C 849.262,522.149 854.928,522.649 860.5,524C 865.942,529.847 865.609,535.347 859.5,540.5C 861.043,543.086 862.709,545.586 864.5,548C 862.741,548.798 861.074,548.631 859.5,547.5C 858.167,545.5 856.833,543.5 855.5,541.5C 852.914,540.52 850.247,540.187 847.5,540.5C 847.5,543.167 847.5,545.833 847.5,548.5C 846.167,548.5 844.833,548.5 843.5,548.5C 843.5,539.833 843.5,531.167 843.5,522.5 Z M 847.5,526.5 C 850.518,526.335 853.518,526.502 856.5,527C 860.944,529.111 861.611,532.111 858.5,536C 854.94,537.237 851.273,537.737 847.5,537.5C 847.5,533.833 847.5,530.167 847.5,526.5 Z"/></g>
<g><path style="opacity:0.709" fill="#88878b" d="M 898.5,522.5 C 900.288,522.215 901.955,522.548 903.5,523.5C 907.268,531.642 910.934,539.809 914.5,548C 912.741,548.798 911.074,548.631 909.5,547.5C 908.541,543.024 905.708,541.357 901,542.5C 896.292,541.357 893.459,543.024 892.5,547.5C 890.926,548.631 889.259,548.798 887.5,548C 891.655,539.699 895.322,531.199 898.5,522.5 Z M 900.5,528.5 C 902.535,531.4 904.201,534.566 905.5,538C 902.5,538.667 899.5,538.667 896.5,538C 897.975,534.885 899.308,531.718 900.5,528.5 Z"/></g>
<g><path style="opacity:0.714" fill="#88878b" d="M 938.5,522.5 C 939.833,522.5 941.167,522.5 942.5,522.5C 942.5,531.167 942.5,539.833 942.5,548.5C 941.167,548.5 939.833,548.5 938.5,548.5C 938.5,539.833 938.5,531.167 938.5,522.5 Z"/></g>
<g><path style="opacity:0.71" fill="#88878b" d="M 974.5,522.5 C 977.187,522.336 979.854,522.503 982.5,523C 984.651,523.265 986.318,524.265 987.5,526C 987.387,527.28 986.72,528.113 985.5,528.5C 982.656,526.897 979.656,526.397 976.5,527C 974.342,528.312 974.009,529.978 975.5,532C 980.753,532.869 984.92,535.369 988,539.5C 988.753,543.493 987.253,546.326 983.5,548C 978.238,549.163 973.404,548.329 969,545.5C 968.217,543.681 968.717,542.348 970.5,541.5C 974.124,544.777 978.124,545.611 982.5,544C 983.833,542.333 983.833,540.667 982.5,539C 977.247,538.131 973.08,535.631 970,531.5C 969.377,527.412 970.877,524.412 974.5,522.5 Z"/></g>
<g><path style="opacity:0.721" fill="#88878b" d="M 1022.5,522.5 C 1035.16,521.996 1040.66,527.996 1039,540.5C 1035.06,548.042 1028.89,550.542 1020.5,548C 1012.54,543.617 1010.37,537.117 1014,528.5C 1016.32,525.605 1019.16,523.605 1022.5,522.5 Z M 1022.5,526.5 C 1033.59,526.241 1037.26,531.241 1033.5,541.5C 1027.35,546.96 1021.85,546.293 1017,539.5C 1015.57,533.7 1017.4,529.367 1022.5,526.5 Z"/></g>
<g><path style="opacity:0.584" fill="#88878b" d="M 73.5,529.5 C 151.167,529.5 228.833,529.5 306.5,529.5C 306.5,530.5 306.5,531.5 306.5,532.5C 228.833,532.5 151.167,532.5 73.5,532.5C 73.5,531.5 73.5,530.5 73.5,529.5 Z"/></g>
<g><path style="opacity:0.582" fill="#88878b" d="M 1080.5,529.5 C 1151.17,529.5 1221.83,529.5 1292.5,529.5C 1292.5,530.5 1292.5,531.5 1292.5,532.5C 1221.83,532.5 1151.17,532.5 1080.5,532.5C 1080.5,531.5 1080.5,530.5 1080.5,529.5 Z"/></g>
</svg>
