<svg fill="#f9f7f3" xmlns="http://www.w3.org/2000/svg" width="320" height="320" version="1.0" viewBox="0 0 240 240"><path d="M102 1.5C85.2 4.2 66.1 11.9 52 21.8c-9.9 6.9-25.7 23.5-31.8 33.5-12 19.3-17.2 36.4-17.9 59-.8 21.7 2.3 37.4 10.9 55.9l4.1 8.8-8.2 30.1c-4.5 16.6-8.1 30.2-7.9 30.4.2.1 13.8-3.3 30.3-7.7 16.5-4.3 31.1-7.7 32.5-7.5 1.4.3 6.1 2.1 10.5 4 20.7 9.2 47 11.9 69.4 7.2 45-9.4 80.1-42.8 91.8-87.2 3.5-13.2 4.3-36.4 1.8-49.8-4.7-25.5-15.1-45.3-33.4-63.6C177.2 7.9 139.7-4.4 102 1.5zm42.2 21.4c17.8 4.6 33.1 13.3 45.9 26.1 8.9 8.9 14.7 17.2 20.1 28.6 6.8 14.7 8.2 21.4 8.2 41.4 0 20.8-1.5 27.6-9.4 43.5-9.8 19.9-25.2 35.1-45.5 45.1-15.4 7.5-25.3 9.8-43 9.8s-27.5-2.3-43.1-9.9l-11.1-5.4-17.3 4.5c-9.4 2.5-17.7 4.4-18.4 4.2-.9-.2.1-5.3 3.6-17.9l4.9-17.6-4-6.9c-10.1-17.6-13.6-31.9-12.8-52.8.6-16.8 2.7-25.9 9.2-39.3C40 58.9 52.5 45 69 34.8c12-7.4 20.6-10.5 40-14.2 5.7-1.1 27.7.3 35.2 2.3z"/><path d="M74.5 65c-3.2 1.2-9.4 8.7-11.6 13.8-6.2 14.3-2.2 29.1 13.5 49.9 17.8 23.7 40 39.4 64.7 45.8 12.9 3.4 24.5.8 32.9-7.4 4-3.9 5-5.5 6-10.4 1.9-9.3 1.7-9.6-12.7-16.4-17.6-8.3-15.9-8.1-20.7-2.7-2.3 2.6-5.5 6.3-7.3 8.3l-3.1 3.6-4.9-1.8c-8.4-3.1-18.4-9.7-25.8-17.1-7.4-7.4-14.5-17.2-14.5-20.1 0-1 1.8-3.9 4-6.5 6.6-7.8 6.6-8.4 1.4-21.3-5.4-13.1-7.3-16.9-8.8-17.9-1.5-1-10.6-.9-13.1.2z"/></svg>